<svg xmlns="http://www.w3.org/2000/svg" xml:space="preserve" xmlns:xlink="http://www.w3.org/1999/xlink" style="max-width: 100%;height: auto;" width="1111.6666666667" height="1130.8263888889" viewBox="0 0 1111.6666666667 1130.8263888889">
<rect width="654.95694444444" height="654.95694444444" fill="#ffffff" x="231.59722222222" y="231.59722222222" />
<g transform="scale(46.319444444444)" fill="#000000"><path d="M17.6,0H6.4c-1,0-1.8,0.8-1.8,1.8v20.4c0,1,0.8,1.8,1.8,1.8h11.1c1,0,1.8-0.8,1.8-1.8V1.8C19.4,0.8,18.6,0,17.6,0z M11.2,2.3h2.7c0.1,0,0.2,0.1,0.2,0.2S14,2.7,13.9,2.7h-2.7c-0.1,0-0.2-0.1-0.2-0.2S11.1,2.3,11.2,2.3z M10.1,2.3 c0.1,0,0.2,0.1,0.2,0.2s-0.1,0.2-0.2,0.2c-0.1,0-0.2-0.1-0.2-0.2S10,2.3,10.1,2.3z M19,19H5V5h14V19z"/></g>
<g fill="#000000">
<g transform="translate(425.83333333333,265.83333333333) scale(3.4333333333333)"><circle cx="3" cy="3" r="2.5"/></g>
<g transform="translate(505.83333333333,265.83333333333) scale(3.4333333333333)"><circle cx="3" cy="3" r="2.5"/></g>
<g transform="translate(565.83333333333,265.83333333333) scale(3.4333333333333)"><circle cx="3" cy="3" r="2.5"/></g>
<g transform="translate(605.83333333333,265.83333333333) scale(3.4333333333333)"><path d="M6,5.5H3C1.6,5.5,0.5,4.4,0.5,3v0c0-1.4,1.1-2.5,2.5-2.5h3V5.5z"/></g>
<g transform="translate(625.83333333333,265.83333333333) scale(3.4333333333333)"><path d="M3,5.5H0v-5h3c1.4,0,2.5,1.1,2.5,2.5v0C5.5,4.4,4.4,5.5,3,5.5z"/></g>
<g transform="translate(665.83333333333,265.83333333333) scale(3.4333333333333)"><circle cx="3" cy="3" r="2.5"/></g>
<g transform="translate(425.83333333333,285.83333333333) scale(3.4333333333333)"><path d="M6,5.5H3C1.6,5.5,0.5,4.4,0.5,3v0c0-1.4,1.1-2.5,2.5-2.5h3V5.5z"/></g>
<g transform="translate(445.83333333333,285.83333333333) scale(3.4333333333333)"><rect y="0.5" width="6" height="5"/></g>
<g transform="translate(465.83333333333,285.83333333333) scale(3.4333333333333)"><path d="M3,5.5H0v-5h3c1.4,0,2.5,1.1,2.5,2.5v0C5.5,4.4,4.4,5.5,3,5.5z"/></g>
<g transform="translate(545.83333333333,285.83333333333) scale(3.4333333333333)"><circle cx="3" cy="3" r="2.5"/></g>
<g transform="translate(605.83333333333,285.83333333333) scale(3.4333333333333)"><circle cx="3" cy="3" r="2.5"/></g>
<g transform="translate(645.83333333333,285.83333333333) scale(3.4333333333333)"><circle cx="3" cy="3" r="2.5"/></g>
<g transform="translate(425.83333333333,305.83333333333) scale(3.4333333333333)"><circle cx="3" cy="3" r="2.5"/></g>
<g transform="translate(625.83333333333,305.83333333333) scale(3.4333333333333)"><path d="M6,5.5H3C1.6,5.5,0.5,4.4,0.5,3v0c0-1.4,1.1-2.5,2.5-2.5h3V5.5z"/></g>
<g transform="translate(645.83333333333,305.83333333333) scale(3.4333333333333)"><rect y="0.5" width="6" height="5"/></g>
<g transform="translate(665.83333333333,305.83333333333) scale(3.4333333333333)"><path d="M3,5.5H0v-5h3c1.4,0,2.5,1.1,2.5,2.5v0C5.5,4.4,4.4,5.5,3,5.5z"/></g>
<g transform="translate(465.83333333333,325.83333333333) scale(3.4333333333333)"><path d="M6,5.5H3C1.6,5.5,0.5,4.4,0.5,3v0c0-1.4,1.1-2.5,2.5-2.5h3V5.5z"/></g>
<g transform="translate(485.83333333333,325.83333333333) scale(3.4333333333333)"><path d="M3,5.5H0v-5h3c1.4,0,2.5,1.1,2.5,2.5v0C5.5,4.4,4.4,5.5,3,5.5z"/></g>
<g transform="translate(525.83333333333,325.83333333333) scale(3.4333333333333)"><path d="M6,5.5H3C1.6,5.5,0.5,4.4,0.5,3v0c0-1.4,1.1-2.5,2.5-2.5h3V5.5z"/></g>
<g transform="translate(545.83333333333,325.83333333333) scale(3.4333333333333)"><rect y="0.5" width="6" height="5"/></g>
<g transform="translate(565.83333333333,325.83333333333) scale(3.4333333333333)"><rect y="0.5" width="6" height="5"/></g>
<g transform="translate(585.83333333333,325.83333333333) scale(3.4333333333333)"><rect y="0.5" width="6" height="5"/></g>
<g transform="translate(605.83333333333,325.83333333333) scale(3.4333333333333)"><path d="M3,5.5H0v-5h3c1.4,0,2.5,1.1,2.5,2.5v0C5.5,4.4,4.4,5.5,3,5.5z"/></g>
<g transform="translate(645.83333333333,325.83333333333) scale(3.4333333333333)"><circle cx="3" cy="3" r="2.5"/></g>
<g transform="translate(445.83333333333,345.83333333333) scale(3.4333333333333)"><path d="M6,5.5H3C1.6,5.5,0.5,4.4,0.5,3v0c0-1.4,1.1-2.5,2.5-2.5h3V5.5z"/></g>
<g transform="translate(465.83333333333,345.83333333333) scale(3.4333333333333)"><rect y="0.5" width="6" height="5"/></g>
<g transform="translate(485.83333333333,345.83333333333) scale(3.4333333333333)"><rect y="0.5" width="6" height="5"/></g>
<g transform="translate(505.83333333333,345.83333333333) scale(3.4333333333333)"><rect y="0.5" width="6" height="5"/></g>
<g transform="translate(525.83333333333,345.83333333333) scale(3.4333333333333)"><path d="M3,5.5H0v-5h3c1.4,0,2.5,1.1,2.5,2.5v0C5.5,4.4,4.4,5.5,3,5.5z"/></g>
<g transform="translate(585.83333333333,345.83333333333) scale(3.4333333333333)"><circle cx="3" cy="3" r="2.5"/></g>
<g transform="translate(625.83333333333,345.83333333333) scale(3.4333333333333)"><path d="M6,5.5H3C1.6,5.5,0.5,4.4,0.5,3v0c0-1.4,1.1-2.5,2.5-2.5h3V5.5z"/></g>
<g transform="translate(645.83333333333,345.83333333333) scale(3.4333333333333)"><path d="M3,5.5H0v-5h3c1.4,0,2.5,1.1,2.5,2.5v0C5.5,4.4,4.4,5.5,3,5.5z"/></g>
<g transform="translate(425.83333333333,365.83333333333) scale(3.4333333333333)"><path d="M6,5.5H3C1.6,5.5,0.5,4.4,0.5,3v0c0-1.4,1.1-2.5,2.5-2.5h3V5.5z"/></g>
<g transform="translate(445.83333333333,365.83333333333) scale(3.4333333333333)"><path d="M3,5.5H0v-5h3c1.4,0,2.5,1.1,2.5,2.5v0C5.5,4.4,4.4,5.5,3,5.5z"/></g>
<g transform="translate(505.83333333333,365.83333333333) scale(3.4333333333333)"><circle cx="3" cy="3" r="2.5"/></g>
<g transform="translate(565.83333333333,365.83333333333) scale(3.4333333333333)"><path d="M6,5.5H3C1.6,5.5,0.5,4.4,0.5,3v0c0-1.4,1.1-2.5,2.5-2.5h3V5.5z"/></g>
<g transform="translate(585.83333333333,365.83333333333) scale(3.4333333333333)"><path d="M3,5.5H0v-5h3c1.4,0,2.5,1.1,2.5,2.5v0C5.5,4.4,4.4,5.5,3,5.5z"/></g>
<g transform="translate(625.83333333333,365.83333333333) scale(3.4333333333333)"><circle cx="3" cy="3" r="2.5"/></g>
<g transform="translate(425.83333333333,385.83333333333) scale(3.4333333333333)"><circle cx="3" cy="3" r="2.5"/></g>
<g transform="translate(465.83333333333,385.83333333333) scale(3.4333333333333)"><circle cx="3" cy="3" r="2.5"/></g>
<g transform="translate(505.83333333333,385.83333333333) scale(3.4333333333333)"><circle cx="3" cy="3" r="2.5"/></g>
<g transform="translate(545.83333333333,385.83333333333) scale(3.4333333333333)"><circle cx="3" cy="3" r="2.5"/></g>
<g transform="translate(585.83333333333,385.83333333333) scale(3.4333333333333)"><circle cx="3" cy="3" r="2.5"/></g>
<g transform="translate(625.83333333333,385.83333333333) scale(3.4333333333333)"><circle cx="3" cy="3" r="2.5"/></g>
<g transform="translate(665.83333333333,385.83333333333) scale(3.4333333333333)"><circle cx="3" cy="3" r="2.5"/></g>
<g transform="translate(425.83333333333,405.83333333333) scale(3.4333333333333)"><path d="M6,5.5H3C1.6,5.5,0.5,4.4,0.5,3v0c0-1.4,1.1-2.5,2.5-2.5h3V5.5z"/></g>
<g transform="translate(445.83333333333,405.83333333333) scale(3.4333333333333)"><path d="M3,5.5H0v-5h3c1.4,0,2.5,1.1,2.5,2.5v0C5.5,4.4,4.4,5.5,3,5.5z"/></g>
<g transform="translate(485.83333333333,405.83333333333) scale(3.4333333333333)"><path d="M6,5.5H3C1.6,5.5,0.5,4.4,0.5,3v0c0-1.4,1.1-2.5,2.5-2.5h3V5.5z"/></g>
<g transform="translate(505.83333333333,405.83333333333) scale(3.4333333333333)"><path d="M3,5.5H0v-5h3c1.4,0,2.5,1.1,2.5,2.5v0C5.5,4.4,4.4,5.5,3,5.5z"/></g>
<g transform="translate(545.83333333333,405.83333333333) scale(3.4333333333333)"><path d="M6,5.5H3C1.6,5.5,0.5,4.4,0.5,3v0c0-1.4,1.1-2.5,2.5-2.5h3V5.5z"/></g>
<g transform="translate(565.83333333333,405.83333333333) scale(3.4333333333333)"><rect y="0.5" width="6" height="5"/></g>
<g transform="translate(585.83333333333,405.83333333333) scale(3.4333333333333)"><path d="M3,5.5H0v-5h3c1.4,0,2.5,1.1,2.5,2.5v0C5.5,4.4,4.4,5.5,3,5.5z"/></g>
<g transform="translate(645.83333333333,405.83333333333) scale(3.4333333333333)"><circle cx="3" cy="3" r="2.5"/></g>
<g transform="translate(305.83333333333,425.83333333333) scale(3.4333333333333)"><path d="M6,5.5H3C1.6,5.5,0.5,4.4,0.5,3v0c0-1.4,1.1-2.5,2.5-2.5h3V5.5z"/></g>
<g transform="translate(325.83333333333,425.83333333333) scale(3.4333333333333)"><rect y="0.5" width="6" height="5"/></g>
<g transform="translate(345.83333333333,425.83333333333) scale(3.4333333333333)"><path d="M3,5.5H0v-5h3c1.4,0,2.5,1.1,2.5,2.5v0C5.5,4.4,4.4,5.5,3,5.5z"/></g>
<g transform="translate(385.83333333333,425.83333333333) scale(3.4333333333333)"><circle cx="3" cy="3" r="2.5"/></g>
<g transform="translate(425.83333333333,425.83333333333) scale(3.4333333333333)"><circle cx="3" cy="3" r="2.5"/></g>
<g transform="translate(465.83333333333,425.83333333333) scale(3.4333333333333)"><circle cx="3" cy="3" r="2.5"/></g>
<g transform="translate(525.83333333333,425.83333333333) scale(3.4333333333333)"><path d="M6,5.5H3C1.6,5.5,0.5,4.4,0.5,3v0c0-1.4,1.1-2.5,2.5-2.5h3V5.5z"/></g>
<g transform="translate(545.83333333333,425.83333333333) scale(3.4333333333333)"><rect y="0.5" width="6" height="5"/></g>
<g transform="translate(565.83333333333,425.83333333333) scale(3.4333333333333)"><rect y="0.5" width="6" height="5"/></g>
<g transform="translate(585.83333333333,425.83333333333) scale(3.4333333333333)"><path d="M3,5.5H0v-5h3c1.4,0,2.5,1.1,2.5,2.5v0C5.5,4.4,4.4,5.5,3,5.5z"/></g>
<g transform="translate(625.83333333333,425.83333333333) scale(3.4333333333333)"><circle cx="3" cy="3" r="2.5"/></g>
<g transform="translate(685.83333333333,425.83333333333) scale(3.4333333333333)"><path d="M6,5.5H3C1.6,5.5,0.5,4.4,0.5,3v0c0-1.4,1.1-2.5,2.5-2.5h3V5.5z"/></g>
<g transform="translate(705.83333333333,425.83333333333) scale(3.4333333333333)"><rect y="0.5" width="6" height="5"/></g>
<g transform="translate(725.83333333333,425.83333333333) scale(3.4333333333333)"><path d="M3,5.5H0v-5h3c1.4,0,2.5,1.1,2.5,2.5v0C5.5,4.4,4.4,5.5,3,5.5z"/></g>
<g transform="translate(785.83333333333,425.83333333333) scale(3.4333333333333)"><path d="M6,5.5H3C1.6,5.5,0.5,4.4,0.5,3v0c0-1.4,1.1-2.5,2.5-2.5h3V5.5z"/></g>
<g transform="translate(805.83333333333,425.83333333333) scale(3.4333333333333)"><rect y="0.5" width="6" height="5"/></g>
<g transform="translate(825.83333333333,425.83333333333) scale(3.4333333333333)"><path d="M3,5.5H0v-5h3c1.4,0,2.5,1.1,2.5,2.5v0C5.5,4.4,4.4,5.5,3,5.5z"/></g>
<g transform="translate(285.83333333333,445.83333333333) scale(3.4333333333333)"><circle cx="3" cy="3" r="2.5"/></g>
<g transform="translate(365.83333333333,445.83333333333) scale(3.4333333333333)"><circle cx="3" cy="3" r="2.5"/></g>
<g transform="translate(405.83333333333,445.83333333333) scale(3.4333333333333)"><path d="M6,5.5H3C1.6,5.5,0.5,4.4,0.5,3v0c0-1.4,1.1-2.5,2.5-2.5h3V5.5z"/></g>
<g transform="translate(425.83333333333,445.83333333333) scale(3.4333333333333)"><rect y="0.5" width="6" height="5"/></g>
<g transform="translate(445.83333333333,445.83333333333) scale(3.4333333333333)"><path d="M3,5.5H0v-5h3c1.4,0,2.5,1.1,2.5,2.5v0C5.5,4.4,4.4,5.5,3,5.5z"/></g>
<g transform="translate(485.83333333333,445.83333333333) scale(3.4333333333333)"><circle cx="3" cy="3" r="2.5"/></g>
<g transform="translate(585.83333333333,445.83333333333) scale(3.4333333333333)"><path d="M6,5.5H3C1.6,5.5,0.5,4.4,0.5,3v0c0-1.4,1.1-2.5,2.5-2.5h3V5.5z"/></g>
<g transform="translate(605.83333333333,445.83333333333) scale(3.4333333333333)"><path d="M3,5.5H0v-5h3c1.4,0,2.5,1.1,2.5,2.5v0C5.5,4.4,4.4,5.5,3,5.5z"/></g>
<g transform="translate(685.83333333333,445.83333333333) scale(3.4333333333333)"><circle cx="3" cy="3" r="2.5"/></g>
<g transform="translate(725.83333333333,445.83333333333) scale(3.4333333333333)"><path d="M6,5.5H3C1.6,5.5,0.5,4.4,0.5,3v0c0-1.4,1.1-2.5,2.5-2.5h3V5.5z"/></g>
<g transform="translate(745.83333333333,445.83333333333) scale(3.4333333333333)"><rect y="0.5" width="6" height="5"/></g>
<g transform="translate(765.83333333333,445.83333333333) scale(3.4333333333333)"><rect y="0.5" width="6" height="5"/></g>
<g transform="translate(785.83333333333,445.83333333333) scale(3.4333333333333)"><path d="M3,5.5H0v-5h3c1.4,0,2.5,1.1,2.5,2.5v0C5.5,4.4,4.4,5.5,3,5.5z"/></g>
<g transform="translate(825.83333333333,445.83333333333) scale(3.4333333333333)"><circle cx="3" cy="3" r="2.5"/></g>
<g transform="translate(285.83333333333,465.83333333333) scale(3.4333333333333)"><path d="M6,5.5H3C1.6,5.5,0.5,4.4,0.5,3v0c0-1.4,1.1-2.5,2.5-2.5h3V5.5z"/></g>
<g transform="translate(305.83333333333,465.83333333333) scale(3.4333333333333)"><rect y="0.5" width="6" height="5"/></g>
<g transform="translate(325.83333333333,465.83333333333) scale(3.4333333333333)"><rect y="0.5" width="6" height="5"/></g>
<g transform="translate(345.83333333333,465.83333333333) scale(3.4333333333333)"><rect y="0.5" width="6" height="5"/></g>
<g transform="translate(365.83333333333,465.83333333333) scale(3.4333333333333)"><rect y="0.5" width="6" height="5"/></g>
<g transform="translate(385.83333333333,465.83333333333) scale(3.4333333333333)"><path d="M3,5.5H0v-5h3c1.4,0,2.5,1.1,2.5,2.5v0C5.5,4.4,4.4,5.5,3,5.5z"/></g>
<g transform="translate(465.83333333333,465.83333333333) scale(3.4333333333333)"><path d="M6,5.5H3C1.6,5.5,0.5,4.4,0.5,3v0c0-1.4,1.1-2.5,2.5-2.5h3V5.5z"/></g>
<g transform="translate(485.83333333333,465.83333333333) scale(3.4333333333333)"><path d="M3,5.5H0v-5h3c1.4,0,2.5,1.1,2.5,2.5v0C5.5,4.4,4.4,5.5,3,5.5z"/></g>
<g transform="translate(525.83333333333,465.83333333333) scale(3.4333333333333)"><path d="M6,5.5H3C1.6,5.5,0.5,4.4,0.5,3v0c0-1.4,1.1-2.5,2.5-2.5h3V5.5z"/></g>
<g transform="translate(545.83333333333,465.83333333333) scale(3.4333333333333)"><rect y="0.5" width="6" height="5"/></g>
<g transform="translate(565.83333333333,465.83333333333) scale(3.4333333333333)"><rect y="0.5" width="6" height="5"/></g>
<g transform="translate(585.83333333333,465.83333333333) scale(3.4333333333333)"><path d="M3,5.5H0v-5h3c1.4,0,2.5,1.1,2.5,2.5v0C5.5,4.4,4.4,5.5,3,5.5z"/></g>
<g transform="translate(685.83333333333,465.83333333333) scale(3.4333333333333)"><path d="M6,5.5H3C1.6,5.5,0.5,4.4,0.5,3v0c0-1.4,1.1-2.5,2.5-2.5h3V5.5z"/></g>
<g transform="translate(705.83333333333,465.83333333333) scale(3.4333333333333)"><path d="M3,5.5H0v-5h3c1.4,0,2.5,1.1,2.5,2.5v0C5.5,4.4,4.4,5.5,3,5.5z"/></g>
<g transform="translate(745.83333333333,465.83333333333) scale(3.4333333333333)"><circle cx="3" cy="3" r="2.5"/></g>
<g transform="translate(785.83333333333,465.83333333333) scale(3.4333333333333)"><circle cx="3" cy="3" r="2.5"/></g>
<g transform="translate(305.83333333333,485.83333333333) scale(3.4333333333333)"><circle cx="3" cy="3" r="2.5"/></g>
<g transform="translate(445.83333333333,485.83333333333) scale(3.4333333333333)"><path d="M6,5.5H3C1.6,5.5,0.5,4.4,0.5,3v0c0-1.4,1.1-2.5,2.5-2.5h3V5.5z"/></g>
<g transform="translate(465.83333333333,485.83333333333) scale(3.4333333333333)"><path d="M3,5.5H0v-5h3c1.4,0,2.5,1.1,2.5,2.5v0C5.5,4.4,4.4,5.5,3,5.5z"/></g>
<g transform="translate(565.83333333333,485.83333333333) scale(3.4333333333333)"><circle cx="3" cy="3" r="2.5"/></g>
<g transform="translate(605.83333333333,485.83333333333) scale(3.4333333333333)"><circle cx="3" cy="3" r="2.5"/></g>
<g transform="translate(685.83333333333,485.83333333333) scale(3.4333333333333)"><path d="M6,5.5H3C1.6,5.5,0.5,4.4,0.5,3v0c0-1.4,1.1-2.5,2.5-2.5h3V5.5z"/></g>
<g transform="translate(705.83333333333,485.83333333333) scale(3.4333333333333)"><rect y="0.5" width="6" height="5"/></g>
<g transform="translate(725.83333333333,485.83333333333) scale(3.4333333333333)"><path d="M3,5.5H0v-5h3c1.4,0,2.5,1.1,2.5,2.5v0C5.5,4.4,4.4,5.5,3,5.5z"/></g>
<g transform="translate(765.83333333333,485.83333333333) scale(3.4333333333333)"><circle cx="3" cy="3" r="2.5"/></g>
<g transform="translate(805.83333333333,485.83333333333) scale(3.4333333333333)"><circle cx="3" cy="3" r="2.5"/></g>
<g transform="translate(285.83333333333,505.83333333333) scale(3.4333333333333)"><circle cx="3" cy="3" r="2.5"/></g>
<g transform="translate(325.83333333333,505.83333333333) scale(3.4333333333333)"><path d="M6,5.5H3C1.6,5.5,0.5,4.4,0.5,3v0c0-1.4,1.1-2.5,2.5-2.5h3V5.5z"/></g>
<g transform="translate(345.83333333333,505.83333333333) scale(3.4333333333333)"><rect y="0.5" width="6" height="5"/></g>
<g transform="translate(365.83333333333,505.83333333333) scale(3.4333333333333)"><rect y="0.5" width="6" height="5"/></g>
<g transform="translate(385.83333333333,505.83333333333) scale(3.4333333333333)"><path d="M3,5.5H0v-5h3c1.4,0,2.5,1.1,2.5,2.5v0C5.5,4.4,4.4,5.5,3,5.5z"/></g>
<g transform="translate(425.83333333333,505.83333333333) scale(3.4333333333333)"><circle cx="3" cy="3" r="2.5"/></g>
<g transform="translate(525.83333333333,505.83333333333) scale(3.4333333333333)"><path d="M6,5.5H3C1.6,5.5,0.5,4.4,0.5,3v0c0-1.4,1.1-2.5,2.5-2.5h3V5.5z"/></g>
<g transform="translate(545.83333333333,505.83333333333) scale(3.4333333333333)"><path d="M3,5.5H0v-5h3c1.4,0,2.5,1.1,2.5,2.5v0C5.5,4.4,4.4,5.5,3,5.5z"/></g>
<g transform="translate(585.83333333333,505.83333333333) scale(3.4333333333333)"><circle cx="3" cy="3" r="2.5"/></g>
<g transform="translate(665.83333333333,505.83333333333) scale(3.4333333333333)"><path d="M6,5.5H3C1.6,5.5,0.5,4.4,0.5,3v0c0-1.4,1.1-2.5,2.5-2.5h3V5.5z"/></g>
<g transform="translate(685.83333333333,505.83333333333) scale(3.4333333333333)"><path d="M3,5.5H0v-5h3c1.4,0,2.5,1.1,2.5,2.5v0C5.5,4.4,4.4,5.5,3,5.5z"/></g>
<g transform="translate(725.83333333333,505.83333333333) scale(3.4333333333333)"><circle cx="3" cy="3" r="2.5"/></g>
<g transform="translate(785.83333333333,505.83333333333) scale(3.4333333333333)"><path d="M6,5.5H3C1.6,5.5,0.5,4.4,0.5,3v0c0-1.4,1.1-2.5,2.5-2.5h3V5.5z"/></g>
<g transform="translate(805.83333333333,505.83333333333) scale(3.4333333333333)"><rect y="0.5" width="6" height="5"/></g>
<g transform="translate(825.83333333333,505.83333333333) scale(3.4333333333333)"><path d="M3,5.5H0v-5h3c1.4,0,2.5,1.1,2.5,2.5v0C5.5,4.4,4.4,5.5,3,5.5z"/></g>
<g transform="translate(305.83333333333,525.83333333333) scale(3.4333333333333)"><path d="M6,5.5H3C1.6,5.5,0.5,4.4,0.5,3v0c0-1.4,1.1-2.5,2.5-2.5h3V5.5z"/></g>
<g transform="translate(325.83333333333,525.83333333333) scale(3.4333333333333)"><path d="M3,5.5H0v-5h3c1.4,0,2.5,1.1,2.5,2.5v0C5.5,4.4,4.4,5.5,3,5.5z"/></g>
<g transform="translate(365.83333333333,525.83333333333) scale(3.4333333333333)"><circle cx="3" cy="3" r="2.5"/></g>
<g transform="translate(405.83333333333,525.83333333333) scale(3.4333333333333)"><circle cx="3" cy="3" r="2.5"/></g>
<g transform="translate(445.83333333333,525.83333333333) scale(3.4333333333333)"><path d="M6,5.5H3C1.6,5.5,0.5,4.4,0.5,3v0c0-1.4,1.1-2.5,2.5-2.5h3V5.5z"/></g>
<g transform="translate(465.83333333333,525.83333333333) scale(3.4333333333333)"><path d="M3,5.5H0v-5h3c1.4,0,2.5,1.1,2.5,2.5v0C5.5,4.4,4.4,5.5,3,5.5z"/></g>
<g transform="translate(505.83333333333,525.83333333333) scale(3.4333333333333)"><circle cx="3" cy="3" r="2.5"/></g>
<g transform="translate(565.83333333333,525.83333333333) scale(3.4333333333333)"><circle cx="3" cy="3" r="2.5"/></g>
<g transform="translate(625.83333333333,525.83333333333) scale(3.4333333333333)"><path d="M6,5.5H3C1.6,5.5,0.5,4.4,0.5,3v0c0-1.4,1.1-2.5,2.5-2.5h3V5.5z"/></g>
<g transform="translate(645.83333333333,525.83333333333) scale(3.4333333333333)"><rect y="0.5" width="6" height="5"/></g>
<g transform="translate(665.83333333333,525.83333333333) scale(3.4333333333333)"><rect y="0.5" width="6" height="5"/></g>
<g transform="translate(685.83333333333,525.83333333333) scale(3.4333333333333)"><rect y="0.5" width="6" height="5"/></g>
<g transform="translate(705.83333333333,525.83333333333) scale(3.4333333333333)"><path d="M3,5.5H0v-5h3c1.4,0,2.5,1.1,2.5,2.5v0C5.5,4.4,4.4,5.5,3,5.5z"/></g>
<g transform="translate(745.83333333333,525.83333333333) scale(3.4333333333333)"><path d="M6,5.5H3C1.6,5.5,0.5,4.4,0.5,3v0c0-1.4,1.1-2.5,2.5-2.5h3V5.5z"/></g>
<g transform="translate(765.83333333333,525.83333333333) scale(3.4333333333333)"><path d="M3,5.5H0v-5h3c1.4,0,2.5,1.1,2.5,2.5v0C5.5,4.4,4.4,5.5,3,5.5z"/></g>
<g transform="translate(805.83333333333,525.83333333333) scale(3.4333333333333)"><path d="M6,5.5H3C1.6,5.5,0.5,4.4,0.5,3v0c0-1.4,1.1-2.5,2.5-2.5h3V5.5z"/></g>
<g transform="translate(825.83333333333,525.83333333333) scale(3.4333333333333)"><path d="M3,5.5H0v-5h3c1.4,0,2.5,1.1,2.5,2.5v0C5.5,4.4,4.4,5.5,3,5.5z"/></g>
<g transform="translate(285.83333333333,545.83333333333) scale(3.4333333333333)"><circle cx="3" cy="3" r="2.5"/></g>
<g transform="translate(345.83333333333,545.83333333333) scale(3.4333333333333)"><path d="M6,5.5H3C1.6,5.5,0.5,4.4,0.5,3v0c0-1.4,1.1-2.5,2.5-2.5h3V5.5z"/></g>
<g transform="translate(365.83333333333,545.83333333333) scale(3.4333333333333)"><rect y="0.5" width="6" height="5"/></g>
<g transform="translate(385.83333333333,545.83333333333) scale(3.4333333333333)"><path d="M3,5.5H0v-5h3c1.4,0,2.5,1.1,2.5,2.5v0C5.5,4.4,4.4,5.5,3,5.5z"/></g>
<g transform="translate(425.83333333333,545.83333333333) scale(3.4333333333333)"><path d="M6,5.5H3C1.6,5.5,0.5,4.4,0.5,3v0c0-1.4,1.1-2.5,2.5-2.5h3V5.5z"/></g>
<g transform="translate(445.83333333333,545.83333333333) scale(3.4333333333333)"><path d="M3,5.5H0v-5h3c1.4,0,2.5,1.1,2.5,2.5v0C5.5,4.4,4.4,5.5,3,5.5z"/></g>
<g transform="translate(505.83333333333,545.83333333333) scale(3.4333333333333)"><circle cx="3" cy="3" r="2.5"/></g>
<g transform="translate(545.83333333333,545.83333333333) scale(3.4333333333333)"><circle cx="3" cy="3" r="2.5"/></g>
<g transform="translate(665.83333333333,545.83333333333) scale(3.4333333333333)"><path d="M6,5.5H3C1.6,5.5,0.5,4.4,0.5,3v0c0-1.4,1.1-2.5,2.5-2.5h3V5.5z"/></g>
<g transform="translate(685.83333333333,545.83333333333) scale(3.4333333333333)"><rect y="0.5" width="6" height="5"/></g>
<g transform="translate(705.83333333333,545.83333333333) scale(3.4333333333333)"><rect y="0.5" width="6" height="5"/></g>
<g transform="translate(725.83333333333,545.83333333333) scale(3.4333333333333)"><path d="M3,5.5H0v-5h3c1.4,0,2.5,1.1,2.5,2.5v0C5.5,4.4,4.4,5.5,3,5.5z"/></g>
<g transform="translate(265.83333333333,565.83333333333) scale(3.4333333333333)"><circle cx="3" cy="3" r="2.5"/></g>
<g transform="translate(305.83333333333,565.83333333333) scale(3.4333333333333)"><circle cx="3" cy="3" r="2.5"/></g>
<g transform="translate(365.83333333333,565.83333333333) scale(3.4333333333333)"><circle cx="3" cy="3" r="2.5"/></g>
<g transform="translate(405.83333333333,565.83333333333) scale(3.4333333333333)"><path d="M6,5.5H3C1.6,5.5,0.5,4.4,0.5,3v0c0-1.4,1.1-2.5,2.5-2.5h3V5.5z"/></g>
<g transform="translate(425.83333333333,565.83333333333) scale(3.4333333333333)"><path d="M3,5.5H0v-5h3c1.4,0,2.5,1.1,2.5,2.5v0C5.5,4.4,4.4,5.5,3,5.5z"/></g>
<g transform="translate(505.83333333333,565.83333333333) scale(3.4333333333333)"><circle cx="3" cy="3" r="2.5"/></g>
<g transform="translate(565.83333333333,565.83333333333) scale(3.4333333333333)"><circle cx="3" cy="3" r="2.5"/></g>
<g transform="translate(605.83333333333,565.83333333333) scale(3.4333333333333)"><path d="M6,5.5H3C1.6,5.5,0.5,4.4,0.5,3v0c0-1.4,1.1-2.5,2.5-2.5h3V5.5z"/></g>
<g transform="translate(625.83333333333,565.83333333333) scale(3.4333333333333)"><path d="M3,5.5H0v-5h3c1.4,0,2.5,1.1,2.5,2.5v0C5.5,4.4,4.4,5.5,3,5.5z"/></g>
<g transform="translate(685.83333333333,565.83333333333) scale(3.4333333333333)"><path d="M6,5.5H3C1.6,5.5,0.5,4.4,0.5,3v0c0-1.4,1.1-2.5,2.5-2.5h3V5.5z"/></g>
<g transform="translate(705.83333333333,565.83333333333) scale(3.4333333333333)"><path d="M3,5.5H0v-5h3c1.4,0,2.5,1.1,2.5,2.5v0C5.5,4.4,4.4,5.5,3,5.5z"/></g>
<g transform="translate(745.83333333333,565.83333333333) scale(3.4333333333333)"><path d="M6,5.5H3C1.6,5.5,0.5,4.4,0.5,3v0c0-1.4,1.1-2.5,2.5-2.5h3V5.5z"/></g>
<g transform="translate(765.83333333333,565.83333333333) scale(3.4333333333333)"><path d="M3,5.5H0v-5h3c1.4,0,2.5,1.1,2.5,2.5v0C5.5,4.4,4.4,5.5,3,5.5z"/></g>
<g transform="translate(265.83333333333,585.83333333333) scale(3.4333333333333)"><circle cx="3" cy="3" r="2.5"/></g>
<g transform="translate(305.83333333333,585.83333333333) scale(3.4333333333333)"><circle cx="3" cy="3" r="2.5"/></g>
<g transform="translate(365.83333333333,585.83333333333) scale(3.4333333333333)"><path d="M6,5.5H3C1.6,5.5,0.5,4.4,0.5,3v0c0-1.4,1.1-2.5,2.5-2.5h3V5.5z"/></g>
<g transform="translate(385.83333333333,585.83333333333) scale(3.4333333333333)"><rect y="0.5" width="6" height="5"/></g>
<g transform="translate(405.83333333333,585.83333333333) scale(3.4333333333333)"><path d="M3,5.5H0v-5h3c1.4,0,2.5,1.1,2.5,2.5v0C5.5,4.4,4.4,5.5,3,5.5z"/></g>
<g transform="translate(465.83333333333,585.83333333333) scale(3.4333333333333)"><path d="M6,5.5H3C1.6,5.5,0.5,4.4,0.5,3v0c0-1.4,1.1-2.5,2.5-2.5h3V5.5z"/></g>
<g transform="translate(485.83333333333,585.83333333333) scale(3.4333333333333)"><path d="M3,5.5H0v-5h3c1.4,0,2.5,1.1,2.5,2.5v0C5.5,4.4,4.4,5.5,3,5.5z"/></g>
<g transform="translate(525.83333333333,585.83333333333) scale(3.4333333333333)"><circle cx="3" cy="3" r="2.5"/></g>
<g transform="translate(585.83333333333,585.83333333333) scale(3.4333333333333)"><circle cx="3" cy="3" r="2.5"/></g>
<g transform="translate(625.83333333333,585.83333333333) scale(3.4333333333333)"><circle cx="3" cy="3" r="2.5"/></g>
<g transform="translate(665.83333333333,585.83333333333) scale(3.4333333333333)"><circle cx="3" cy="3" r="2.5"/></g>
<g transform="translate(745.83333333333,585.83333333333) scale(3.4333333333333)"><path d="M6,5.5H3C1.6,5.5,0.5,4.4,0.5,3v0c0-1.4,1.1-2.5,2.5-2.5h3V5.5z"/></g>
<g transform="translate(765.83333333333,585.83333333333) scale(3.4333333333333)"><rect y="0.5" width="6" height="5"/></g>
<g transform="translate(785.83333333333,585.83333333333) scale(3.4333333333333)"><rect y="0.5" width="6" height="5"/></g>
<g transform="translate(805.83333333333,585.83333333333) scale(3.4333333333333)"><rect y="0.5" width="6" height="5"/></g>
<g transform="translate(825.83333333333,585.83333333333) scale(3.4333333333333)"><path d="M3,5.5H0v-5h3c1.4,0,2.5,1.1,2.5,2.5v0C5.5,4.4,4.4,5.5,3,5.5z"/></g>
<g transform="translate(265.83333333333,605.83333333333) scale(3.4333333333333)"><circle cx="3" cy="3" r="2.5"/></g>
<g transform="translate(305.83333333333,605.83333333333) scale(3.4333333333333)"><circle cx="3" cy="3" r="2.5"/></g>
<g transform="translate(345.83333333333,605.83333333333) scale(3.4333333333333)"><circle cx="3" cy="3" r="2.5"/></g>
<g transform="translate(425.83333333333,605.83333333333) scale(3.4333333333333)"><circle cx="3" cy="3" r="2.5"/></g>
<g transform="translate(485.83333333333,605.83333333333) scale(3.4333333333333)"><path d="M6,5.5H3C1.6,5.5,0.5,4.4,0.5,3v0c0-1.4,1.1-2.5,2.5-2.5h3V5.5z"/></g>
<g transform="translate(505.83333333333,605.83333333333) scale(3.4333333333333)"><path d="M3,5.5H0v-5h3c1.4,0,2.5,1.1,2.5,2.5v0C5.5,4.4,4.4,5.5,3,5.5z"/></g>
<g transform="translate(545.83333333333,605.83333333333) scale(3.4333333333333)"><circle cx="3" cy="3" r="2.5"/></g>
<g transform="translate(625.83333333333,605.83333333333) scale(3.4333333333333)"><path d="M6,5.5H3C1.6,5.5,0.5,4.4,0.5,3v0c0-1.4,1.1-2.5,2.5-2.5h3V5.5z"/></g>
<g transform="translate(645.83333333333,605.83333333333) scale(3.4333333333333)"><rect y="0.5" width="6" height="5"/></g>
<g transform="translate(665.83333333333,605.83333333333) scale(3.4333333333333)"><path d="M3,5.5H0v-5h3c1.4,0,2.5,1.1,2.5,2.5v0C5.5,4.4,4.4,5.5,3,5.5z"/></g>
<g transform="translate(705.83333333333,605.83333333333) scale(3.4333333333333)"><path d="M6,5.5H3C1.6,5.5,0.5,4.4,0.5,3v0c0-1.4,1.1-2.5,2.5-2.5h3V5.5z"/></g>
<g transform="translate(725.83333333333,605.83333333333) scale(3.4333333333333)"><rect y="0.5" width="6" height="5"/></g>
<g transform="translate(745.83333333333,605.83333333333) scale(3.4333333333333)"><path d="M3,5.5H0v-5h3c1.4,0,2.5,1.1,2.5,2.5v0C5.5,4.4,4.4,5.5,3,5.5z"/></g>
<g transform="translate(785.83333333333,605.83333333333) scale(3.4333333333333)"><path d="M6,5.5H3C1.6,5.5,0.5,4.4,0.5,3v0c0-1.4,1.1-2.5,2.5-2.5h3V5.5z"/></g>
<g transform="translate(805.83333333333,605.83333333333) scale(3.4333333333333)"><rect y="0.5" width="6" height="5"/></g>
<g transform="translate(825.83333333333,605.83333333333) scale(3.4333333333333)"><path d="M3,5.5H0v-5h3c1.4,0,2.5,1.1,2.5,2.5v0C5.5,4.4,4.4,5.5,3,5.5z"/></g>
<g transform="translate(265.83333333333,625.83333333333) scale(3.4333333333333)"><circle cx="3" cy="3" r="2.5"/></g>
<g transform="translate(305.83333333333,625.83333333333) scale(3.4333333333333)"><circle cx="3" cy="3" r="2.5"/></g>
<g transform="translate(345.83333333333,625.83333333333) scale(3.4333333333333)"><path d="M6,5.5H3C1.6,5.5,0.5,4.4,0.5,3v0c0-1.4,1.1-2.5,2.5-2.5h3V5.5z"/></g>
<g transform="translate(365.83333333333,625.83333333333) scale(3.4333333333333)"><rect y="0.5" width="6" height="5"/></g>
<g transform="translate(385.83333333333,625.83333333333) scale(3.4333333333333)"><rect y="0.5" width="6" height="5"/></g>
<g transform="translate(405.83333333333,625.83333333333) scale(3.4333333333333)"><rect y="0.5" width="6" height="5"/></g>
<g transform="translate(425.83333333333,625.83333333333) scale(3.4333333333333)"><rect y="0.5" width="6" height="5"/></g>
<g transform="translate(445.83333333333,625.83333333333) scale(3.4333333333333)"><path d="M3,5.5H0v-5h3c1.4,0,2.5,1.1,2.5,2.5v0C5.5,4.4,4.4,5.5,3,5.5z"/></g>
<g transform="translate(485.83333333333,625.83333333333) scale(3.4333333333333)"><path d="M6,5.5H3C1.6,5.5,0.5,4.4,0.5,3v0c0-1.4,1.1-2.5,2.5-2.5h3V5.5z"/></g>
<g transform="translate(505.83333333333,625.83333333333) scale(3.4333333333333)"><rect y="0.5" width="6" height="5"/></g>
<g transform="translate(525.83333333333,625.83333333333) scale(3.4333333333333)"><path d="M3,5.5H0v-5h3c1.4,0,2.5,1.1,2.5,2.5v0C5.5,4.4,4.4,5.5,3,5.5z"/></g>
<g transform="translate(585.83333333333,625.83333333333) scale(3.4333333333333)"><circle cx="3" cy="3" r="2.5"/></g>
<g transform="translate(625.83333333333,625.83333333333) scale(3.4333333333333)"><circle cx="3" cy="3" r="2.5"/></g>
<g transform="translate(705.83333333333,625.83333333333) scale(3.4333333333333)"><circle cx="3" cy="3" r="2.5"/></g>
<g transform="translate(745.83333333333,625.83333333333) scale(3.4333333333333)"><path d="M6,5.5H3C1.6,5.5,0.5,4.4,0.5,3v0c0-1.4,1.1-2.5,2.5-2.5h3V5.5z"/></g>
<g transform="translate(765.83333333333,625.83333333333) scale(3.4333333333333)"><rect y="0.5" width="6" height="5"/></g>
<g transform="translate(785.83333333333,625.83333333333) scale(3.4333333333333)"><path d="M3,5.5H0v-5h3c1.4,0,2.5,1.1,2.5,2.5v0C5.5,4.4,4.4,5.5,3,5.5z"/></g>
<g transform="translate(265.83333333333,645.83333333333) scale(3.4333333333333)"><circle cx="3" cy="3" r="2.5"/></g>
<g transform="translate(325.83333333333,645.83333333333) scale(3.4333333333333)"><path d="M6,5.5H3C1.6,5.5,0.5,4.4,0.5,3v0c0-1.4,1.1-2.5,2.5-2.5h3V5.5z"/></g>
<g transform="translate(345.83333333333,645.83333333333) scale(3.4333333333333)"><path d="M3,5.5H0v-5h3c1.4,0,2.5,1.1,2.5,2.5v0C5.5,4.4,4.4,5.5,3,5.5z"/></g>
<g transform="translate(425.83333333333,645.83333333333) scale(3.4333333333333)"><circle cx="3" cy="3" r="2.5"/></g>
<g transform="translate(465.83333333333,645.83333333333) scale(3.4333333333333)"><circle cx="3" cy="3" r="2.5"/></g>
<g transform="translate(525.83333333333,645.83333333333) scale(3.4333333333333)"><path d="M6,5.5H3C1.6,5.5,0.5,4.4,0.5,3v0c0-1.4,1.1-2.5,2.5-2.5h3V5.5z"/></g>
<g transform="translate(545.83333333333,645.83333333333) scale(3.4333333333333)"><path d="M3,5.5H0v-5h3c1.4,0,2.5,1.1,2.5,2.5v0C5.5,4.4,4.4,5.5,3,5.5z"/></g>
<g transform="translate(585.83333333333,645.83333333333) scale(3.4333333333333)"><circle cx="3" cy="3" r="2.5"/></g>
<g transform="translate(705.83333333333,645.83333333333) scale(3.4333333333333)"><circle cx="3" cy="3" r="2.5"/></g>
<g transform="translate(805.83333333333,645.83333333333) scale(3.4333333333333)"><path d="M6,5.5H3C1.6,5.5,0.5,4.4,0.5,3v0c0-1.4,1.1-2.5,2.5-2.5h3V5.5z"/></g>
<g transform="translate(825.83333333333,645.83333333333) scale(3.4333333333333)"><path d="M3,5.5H0v-5h3c1.4,0,2.5,1.1,2.5,2.5v0C5.5,4.4,4.4,5.5,3,5.5z"/></g>
<g transform="translate(265.83333333333,665.83333333333) scale(3.4333333333333)"><circle cx="3" cy="3" r="2.5"/></g>
<g transform="translate(325.83333333333,665.83333333333) scale(3.4333333333333)"><circle cx="3" cy="3" r="2.5"/></g>
<g transform="translate(365.83333333333,665.83333333333) scale(3.4333333333333)"><path d="M6,5.5H3C1.6,5.5,0.5,4.4,0.5,3v0c0-1.4,1.1-2.5,2.5-2.5h3V5.5z"/></g>
<g transform="translate(385.83333333333,665.83333333333) scale(3.4333333333333)"><rect y="0.5" width="6" height="5"/></g>
<g transform="translate(405.83333333333,665.83333333333) scale(3.4333333333333)"><rect y="0.5" width="6" height="5"/></g>
<g transform="translate(425.83333333333,665.83333333333) scale(3.4333333333333)"><path d="M3,5.5H0v-5h3c1.4,0,2.5,1.1,2.5,2.5v0C5.5,4.4,4.4,5.5,3,5.5z"/></g>
<g transform="translate(485.83333333333,665.83333333333) scale(3.4333333333333)"><path d="M6,5.5H3C1.6,5.5,0.5,4.4,0.5,3v0c0-1.4,1.1-2.5,2.5-2.5h3V5.5z"/></g>
<g transform="translate(505.83333333333,665.83333333333) scale(3.4333333333333)"><path d="M3,5.5H0v-5h3c1.4,0,2.5,1.1,2.5,2.5v0C5.5,4.4,4.4,5.5,3,5.5z"/></g>
<g transform="translate(545.83333333333,665.83333333333) scale(3.4333333333333)"><circle cx="3" cy="3" r="2.5"/></g>
<g transform="translate(585.83333333333,665.83333333333) scale(3.4333333333333)"><circle cx="3" cy="3" r="2.5"/></g>
<g transform="translate(645.83333333333,665.83333333333) scale(3.4333333333333)"><path d="M6,5.5H3C1.6,5.5,0.5,4.4,0.5,3v0c0-1.4,1.1-2.5,2.5-2.5h3V5.5z"/></g>
<g transform="translate(665.83333333333,665.83333333333) scale(3.4333333333333)"><rect y="0.5" width="6" height="5"/></g>
<g transform="translate(685.83333333333,665.83333333333) scale(3.4333333333333)"><rect y="0.5" width="6" height="5"/></g>
<g transform="translate(705.83333333333,665.83333333333) scale(3.4333333333333)"><rect y="0.5" width="6" height="5"/></g>
<g transform="translate(725.83333333333,665.83333333333) scale(3.4333333333333)"><rect y="0.5" width="6" height="5"/></g>
<g transform="translate(745.83333333333,665.83333333333) scale(3.4333333333333)"><path d="M3,5.5H0v-5h3c1.4,0,2.5,1.1,2.5,2.5v0C5.5,4.4,4.4,5.5,3,5.5z"/></g>
<g transform="translate(785.83333333333,665.83333333333) scale(3.4333333333333)"><circle cx="3" cy="3" r="2.5"/></g>
<g transform="translate(425.83333333333,685.83333333333) scale(3.4333333333333)"><path d="M6,5.5H3C1.6,5.5,0.5,4.4,0.5,3v0c0-1.4,1.1-2.5,2.5-2.5h3V5.5z"/></g>
<g transform="translate(445.83333333333,685.83333333333) scale(3.4333333333333)"><rect y="0.5" width="6" height="5"/></g>
<g transform="translate(465.83333333333,685.83333333333) scale(3.4333333333333)"><rect y="0.5" width="6" height="5"/></g>
<g transform="translate(485.83333333333,685.83333333333) scale(3.4333333333333)"><rect y="0.5" width="6" height="5"/></g>
<g transform="translate(505.83333333333,685.83333333333) scale(3.4333333333333)"><path d="M3,5.5H0v-5h3c1.4,0,2.5,1.1,2.5,2.5v0C5.5,4.4,4.4,5.5,3,5.5z"/></g>
<g transform="translate(545.83333333333,685.83333333333) scale(3.4333333333333)"><path d="M6,5.5H3C1.6,5.5,0.5,4.4,0.5,3v0c0-1.4,1.1-2.5,2.5-2.5h3V5.5z"/></g>
<g transform="translate(565.83333333333,685.83333333333) scale(3.4333333333333)"><path d="M3,5.5H0v-5h3c1.4,0,2.5,1.1,2.5,2.5v0C5.5,4.4,4.4,5.5,3,5.5z"/></g>
<g transform="translate(625.83333333333,685.83333333333) scale(3.4333333333333)"><path d="M6,5.5H3C1.6,5.5,0.5,4.4,0.5,3v0c0-1.4,1.1-2.5,2.5-2.5h3V5.5z"/></g>
<g transform="translate(645.83333333333,685.83333333333) scale(3.4333333333333)"><rect y="0.5" width="6" height="5"/></g>
<g transform="translate(665.83333333333,685.83333333333) scale(3.4333333333333)"><path d="M3,5.5H0v-5h3c1.4,0,2.5,1.1,2.5,2.5v0C5.5,4.4,4.4,5.5,3,5.5z"/></g>
<g transform="translate(745.83333333333,685.83333333333) scale(3.4333333333333)"><path d="M6,5.5H3C1.6,5.5,0.5,4.4,0.5,3v0c0-1.4,1.1-2.5,2.5-2.5h3V5.5z"/></g>
<g transform="translate(765.83333333333,685.83333333333) scale(3.4333333333333)"><path d="M3,5.5H0v-5h3c1.4,0,2.5,1.1,2.5,2.5v0C5.5,4.4,4.4,5.5,3,5.5z"/></g>
<g transform="translate(805.83333333333,685.83333333333) scale(3.4333333333333)"><path d="M6,5.5H3C1.6,5.5,0.5,4.4,0.5,3v0c0-1.4,1.1-2.5,2.5-2.5h3V5.5z"/></g>
<g transform="translate(825.83333333333,685.83333333333) scale(3.4333333333333)"><path d="M3,5.5H0v-5h3c1.4,0,2.5,1.1,2.5,2.5v0C5.5,4.4,4.4,5.5,3,5.5z"/></g>
<g transform="translate(445.83333333333,705.83333333333) scale(3.4333333333333)"><circle cx="3" cy="3" r="2.5"/></g>
<g transform="translate(485.83333333333,705.83333333333) scale(3.4333333333333)"><circle cx="3" cy="3" r="2.5"/></g>
<g transform="translate(565.83333333333,705.83333333333) scale(3.4333333333333)"><circle cx="3" cy="3" r="2.5"/></g>
<g transform="translate(605.83333333333,705.83333333333) scale(3.4333333333333)"><circle cx="3" cy="3" r="2.5"/></g>
<g transform="translate(645.83333333333,705.83333333333) scale(3.4333333333333)"><path d="M6,5.5H3C1.6,5.5,0.5,4.4,0.5,3v0c0-1.4,1.1-2.5,2.5-2.5h3V5.5z"/></g>
<g transform="translate(665.83333333333,705.83333333333) scale(3.4333333333333)"><path d="M3,5.5H0v-5h3c1.4,0,2.5,1.1,2.5,2.5v0C5.5,4.4,4.4,5.5,3,5.5z"/></g>
<g transform="translate(705.83333333333,705.83333333333) scale(3.4333333333333)"><circle cx="3" cy="3" r="2.5"/></g>
<g transform="translate(745.83333333333,705.83333333333) scale(3.4333333333333)"><circle cx="3" cy="3" r="2.5"/></g>
<g transform="translate(465.83333333333,725.83333333333) scale(3.4333333333333)"><circle cx="3" cy="3" r="2.5"/></g>
<g transform="translate(525.83333333333,725.83333333333) scale(3.4333333333333)"><circle cx="3" cy="3" r="2.5"/></g>
<g transform="translate(565.83333333333,725.83333333333) scale(3.4333333333333)"><circle cx="3" cy="3" r="2.5"/></g>
<g transform="translate(625.83333333333,725.83333333333) scale(3.4333333333333)"><path d="M6,5.5H3C1.6,5.5,0.5,4.4,0.5,3v0c0-1.4,1.1-2.5,2.5-2.5h3V5.5z"/></g>
<g transform="translate(645.83333333333,725.83333333333) scale(3.4333333333333)"><rect y="0.5" width="6" height="5"/></g>
<g transform="translate(665.83333333333,725.83333333333) scale(3.4333333333333)"><path d="M3,5.5H0v-5h3c1.4,0,2.5,1.1,2.5,2.5v0C5.5,4.4,4.4,5.5,3,5.5z"/></g>
<g transform="translate(745.83333333333,725.83333333333) scale(3.4333333333333)"><path d="M6,5.5H3C1.6,5.5,0.5,4.4,0.5,3v0c0-1.4,1.1-2.5,2.5-2.5h3V5.5z"/></g>
<g transform="translate(765.83333333333,725.83333333333) scale(3.4333333333333)"><path d="M3,5.5H0v-5h3c1.4,0,2.5,1.1,2.5,2.5v0C5.5,4.4,4.4,5.5,3,5.5z"/></g>
<g transform="translate(805.83333333333,725.83333333333) scale(3.4333333333333)"><circle cx="3" cy="3" r="2.5"/></g>
<g transform="translate(425.83333333333,745.83333333333) scale(3.4333333333333)"><path d="M6,5.5H3C1.6,5.5,0.5,4.4,0.5,3v0c0-1.4,1.1-2.5,2.5-2.5h3V5.5z"/></g>
<g transform="translate(445.83333333333,745.83333333333) scale(3.4333333333333)"><path d="M3,5.5H0v-5h3c1.4,0,2.5,1.1,2.5,2.5v0C5.5,4.4,4.4,5.5,3,5.5z"/></g>
<g transform="translate(565.83333333333,745.83333333333) scale(3.4333333333333)"><path d="M6,5.5H3C1.6,5.5,0.5,4.4,0.5,3v0c0-1.4,1.1-2.5,2.5-2.5h3V5.5z"/></g>
<g transform="translate(585.83333333333,745.83333333333) scale(3.4333333333333)"><path d="M3,5.5H0v-5h3c1.4,0,2.5,1.1,2.5,2.5v0C5.5,4.4,4.4,5.5,3,5.5z"/></g>
<g transform="translate(625.83333333333,745.83333333333) scale(3.4333333333333)"><circle cx="3" cy="3" r="2.5"/></g>
<g transform="translate(665.83333333333,745.83333333333) scale(3.4333333333333)"><path d="M6,5.5H3C1.6,5.5,0.5,4.4,0.5,3v0c0-1.4,1.1-2.5,2.5-2.5h3V5.5z"/></g>
<g transform="translate(685.83333333333,745.83333333333) scale(3.4333333333333)"><rect y="0.5" width="6" height="5"/></g>
<g transform="translate(705.83333333333,745.83333333333) scale(3.4333333333333)"><rect y="0.5" width="6" height="5"/></g>
<g transform="translate(725.83333333333,745.83333333333) scale(3.4333333333333)"><rect y="0.5" width="6" height="5"/></g>
<g transform="translate(745.83333333333,745.83333333333) scale(3.4333333333333)"><rect y="0.5" width="6" height="5"/></g>
<g transform="translate(765.83333333333,745.83333333333) scale(3.4333333333333)"><rect y="0.5" width="6" height="5"/></g>
<g transform="translate(785.83333333333,745.83333333333) scale(3.4333333333333)"><path d="M3,5.5H0v-5h3c1.4,0,2.5,1.1,2.5,2.5v0C5.5,4.4,4.4,5.5,3,5.5z"/></g>
<g transform="translate(825.83333333333,745.83333333333) scale(3.4333333333333)"><circle cx="3" cy="3" r="2.5"/></g>
<g transform="translate(425.83333333333,765.83333333333) scale(3.4333333333333)"><path d="M6,5.5H3C1.6,5.5,0.5,4.4,0.5,3v0c0-1.4,1.1-2.5,2.5-2.5h3V5.5z"/></g>
<g transform="translate(445.83333333333,765.83333333333) scale(3.4333333333333)"><path d="M3,5.5H0v-5h3c1.4,0,2.5,1.1,2.5,2.5v0C5.5,4.4,4.4,5.5,3,5.5z"/></g>
<g transform="translate(505.83333333333,765.83333333333) scale(3.4333333333333)"><circle cx="3" cy="3" r="2.5"/></g>
<g transform="translate(545.83333333333,765.83333333333) scale(3.4333333333333)"><path d="M6,5.5H3C1.6,5.5,0.5,4.4,0.5,3v0c0-1.4,1.1-2.5,2.5-2.5h3V5.5z"/></g>
<g transform="translate(565.83333333333,765.83333333333) scale(3.4333333333333)"><rect y="0.5" width="6" height="5"/></g>
<g transform="translate(585.83333333333,765.83333333333) scale(3.4333333333333)"><path d="M3,5.5H0v-5h3c1.4,0,2.5,1.1,2.5,2.5v0C5.5,4.4,4.4,5.5,3,5.5z"/></g>
<g transform="translate(625.83333333333,765.83333333333) scale(3.4333333333333)"><path d="M6,5.5H3C1.6,5.5,0.5,4.4,0.5,3v0c0-1.4,1.1-2.5,2.5-2.5h3V5.5z"/></g>
<g transform="translate(645.83333333333,765.83333333333) scale(3.4333333333333)"><rect y="0.5" width="6" height="5"/></g>
<g transform="translate(665.83333333333,765.83333333333) scale(3.4333333333333)"><rect y="0.5" width="6" height="5"/></g>
<g transform="translate(685.83333333333,765.83333333333) scale(3.4333333333333)"><path d="M3,5.5H0v-5h3c1.4,0,2.5,1.1,2.5,2.5v0C5.5,4.4,4.4,5.5,3,5.5z"/></g>
<g transform="translate(725.83333333333,765.83333333333) scale(3.4333333333333)"><circle cx="3" cy="3" r="2.5"/></g>
<g transform="translate(765.83333333333,765.83333333333) scale(3.4333333333333)"><path d="M6,5.5H3C1.6,5.5,0.5,4.4,0.5,3v0c0-1.4,1.1-2.5,2.5-2.5h3V5.5z"/></g>
<g transform="translate(785.83333333333,765.83333333333) scale(3.4333333333333)"><path d="M3,5.5H0v-5h3c1.4,0,2.5,1.1,2.5,2.5v0C5.5,4.4,4.4,5.5,3,5.5z"/></g>
<g transform="translate(425.83333333333,785.83333333333) scale(3.4333333333333)"><path d="M6,5.5H3C1.6,5.5,0.5,4.4,0.5,3v0c0-1.4,1.1-2.5,2.5-2.5h3V5.5z"/></g>
<g transform="translate(445.83333333333,785.83333333333) scale(3.4333333333333)"><path d="M3,5.5H0v-5h3c1.4,0,2.5,1.1,2.5,2.5v0C5.5,4.4,4.4,5.5,3,5.5z"/></g>
<g transform="translate(485.83333333333,785.83333333333) scale(3.4333333333333)"><path d="M6,5.5H3C1.6,5.5,0.5,4.4,0.5,3v0c0-1.4,1.1-2.5,2.5-2.5h3V5.5z"/></g>
<g transform="translate(505.83333333333,785.83333333333) scale(3.4333333333333)"><path d="M3,5.5H0v-5h3c1.4,0,2.5,1.1,2.5,2.5v0C5.5,4.4,4.4,5.5,3,5.5z"/></g>
<g transform="translate(545.83333333333,785.83333333333) scale(3.4333333333333)"><circle cx="3" cy="3" r="2.5"/></g>
<g transform="translate(625.83333333333,785.83333333333) scale(3.4333333333333)"><path d="M6,5.5H3C1.6,5.5,0.5,4.4,0.5,3v0c0-1.4,1.1-2.5,2.5-2.5h3V5.5z"/></g>
<g transform="translate(645.83333333333,785.83333333333) scale(3.4333333333333)"><rect y="0.5" width="6" height="5"/></g>
<g transform="translate(665.83333333333,785.83333333333) scale(3.4333333333333)"><rect y="0.5" width="6" height="5"/></g>
<g transform="translate(685.83333333333,785.83333333333) scale(3.4333333333333)"><rect y="0.5" width="6" height="5"/></g>
<g transform="translate(705.83333333333,785.83333333333) scale(3.4333333333333)"><rect y="0.5" width="6" height="5"/></g>
<g transform="translate(725.83333333333,785.83333333333) scale(3.4333333333333)"><rect y="0.5" width="6" height="5"/></g>
<g transform="translate(745.83333333333,785.83333333333) scale(3.4333333333333)"><rect y="0.5" width="6" height="5"/></g>
<g transform="translate(765.83333333333,785.83333333333) scale(3.4333333333333)"><rect y="0.5" width="6" height="5"/></g>
<g transform="translate(785.83333333333,785.83333333333) scale(3.4333333333333)"><rect y="0.5" width="6" height="5"/></g>
<g transform="translate(805.83333333333,785.83333333333) scale(3.4333333333333)"><path d="M3,5.5H0v-5h3c1.4,0,2.5,1.1,2.5,2.5v0C5.5,4.4,4.4,5.5,3,5.5z"/></g>
<g transform="translate(465.83333333333,805.83333333333) scale(3.4333333333333)"><path d="M6,5.5H3C1.6,5.5,0.5,4.4,0.5,3v0c0-1.4,1.1-2.5,2.5-2.5h3V5.5z"/></g>
<g transform="translate(485.83333333333,805.83333333333) scale(3.4333333333333)"><path d="M3,5.5H0v-5h3c1.4,0,2.5,1.1,2.5,2.5v0C5.5,4.4,4.4,5.5,3,5.5z"/></g>
<g transform="translate(525.83333333333,805.83333333333) scale(3.4333333333333)"><path d="M6,5.5H3C1.6,5.5,0.5,4.4,0.5,3v0c0-1.4,1.1-2.5,2.5-2.5h3V5.5z"/></g>
<g transform="translate(545.83333333333,805.83333333333) scale(3.4333333333333)"><rect y="0.5" width="6" height="5"/></g>
<g transform="translate(565.83333333333,805.83333333333) scale(3.4333333333333)"><path d="M3,5.5H0v-5h3c1.4,0,2.5,1.1,2.5,2.5v0C5.5,4.4,4.4,5.5,3,5.5z"/></g>
<g transform="translate(645.83333333333,805.83333333333) scale(3.4333333333333)"><path d="M6,5.5H3C1.6,5.5,0.5,4.4,0.5,3v0c0-1.4,1.1-2.5,2.5-2.5h3V5.5z"/></g>
<g transform="translate(665.83333333333,805.83333333333) scale(3.4333333333333)"><path d="M3,5.5H0v-5h3c1.4,0,2.5,1.1,2.5,2.5v0C5.5,4.4,4.4,5.5,3,5.5z"/></g>
<g transform="translate(745.83333333333,805.83333333333) scale(3.4333333333333)"><path d="M6,5.5H3C1.6,5.5,0.5,4.4,0.5,3v0c0-1.4,1.1-2.5,2.5-2.5h3V5.5z"/></g>
<g transform="translate(765.83333333333,805.83333333333) scale(3.4333333333333)"><path d="M3,5.5H0v-5h3c1.4,0,2.5,1.1,2.5,2.5v0C5.5,4.4,4.4,5.5,3,5.5z"/></g>
<g transform="translate(805.83333333333,805.83333333333) scale(3.4333333333333)"><circle cx="3" cy="3" r="2.5"/></g>
<g transform="translate(465.83333333333,825.83333333333) scale(3.4333333333333)"><circle cx="3" cy="3" r="2.5"/></g>
<g transform="translate(585.83333333333,825.83333333333) scale(3.4333333333333)"><path d="M6,5.5H3C1.6,5.5,0.5,4.4,0.5,3v0c0-1.4,1.1-2.5,2.5-2.5h3V5.5z"/></g>
<g transform="translate(605.83333333333,825.83333333333) scale(3.4333333333333)"><path d="M3,5.5H0v-5h3c1.4,0,2.5,1.1,2.5,2.5v0C5.5,4.4,4.4,5.5,3,5.5z"/></g>
<g transform="translate(745.83333333333,825.83333333333) scale(3.4333333333333)"><path d="M6,5.5H3C1.6,5.5,0.5,4.4,0.5,3v0c0-1.4,1.1-2.5,2.5-2.5h3V5.5z"/></g>
<g transform="translate(765.83333333333,825.83333333333) scale(3.4333333333333)"><rect y="0.5" width="6" height="5"/></g>
<g transform="translate(785.83333333333,825.83333333333) scale(3.4333333333333)"><path d="M3,5.5H0v-5h3c1.4,0,2.5,1.1,2.5,2.5v0C5.5,4.4,4.4,5.5,3,5.5z"/></g>
</g><g fill="#000000" transform="scale(46.319444444444)"><path d="M17.6,0H6.4c-1,0-1.8,0.8-1.8,1.8v20.4c0,1,0.8,1.8,1.8,1.8h11.1c1,0,1.8-0.8,1.8-1.8V1.8C19.4,0.8,18.6,0,17.6,0z M11.2,2.3h2.7c0.1,0,0.2,0.1,0.2,0.2S14,2.7,13.9,2.7h-2.7c-0.1,0-0.2-0.1-0.2-0.2S11.1,2.3,11.2,2.3z M10.1,2.3 c0.1,0,0.2,0.1,0.2,0.2s-0.1,0.2-0.2,0.2c-0.1,0-0.2-0.1-0.2-0.2S10,2.3,10.1,2.3z M19,19H5V5h14V19z"/></g>
<g><g transform="translate(265.83333333333,265.83333333333)"  fill="#000000"><g transform="scale(10)"><path d="M0,0v9.6C0,12,2,14,4.4,14h5.1C12,14,14,12,14,9.6V4.4C14,2,12,0,9.6,0H0z M9.2,12H4.8C3.3,12,2,10.7,2,9.2V2h7.2 C10.7,2,12,3.3,12,4.8v4.4C12,10.7,10.7,12,9.2,12z"/></g></g>
<g transform="translate(705.83333333333,265.83333333333)"  fill="#000000"><g transform="scale(10) rotate(90 7 7)"><path d="M0,0v9.6C0,12,2,14,4.4,14h5.1C12,14,14,12,14,9.6V4.4C14,2,12,0,9.6,0H0z M9.2,12H4.8C3.3,12,2,10.7,2,9.2V2h7.2 C10.7,2,12,3.3,12,4.8v4.4C12,10.7,10.7,12,9.2,12z"/></g></g>
<g transform="translate(265.83333333333,705.83333333333)"  fill="#000000"><g transform="scale(10) rotate(-90 7 7)"><path d="M0,0v9.6C0,12,2,14,4.4,14h5.1C12,14,14,12,14,9.6V4.4C14,2,12,0,9.6,0H0z M9.2,12H4.8C3.3,12,2,10.7,2,9.2V2h7.2 C10.7,2,12,3.3,12,4.8v4.4C12,10.7,10.7,12,9.2,12z"/></g></g>
<g transform="translate(305.83333333333,305.83333333333)"  fill="#000000"><g transform="scale(10)"><path d="M3,6L3,6C1.3,6,0,4.7,0,3l0-3l3,0c1.7,0,3,1.3,3,3v0C6,4.7,4.7,6,3,6z"/></g></g>
<g transform="translate(745.83333333333,305.83333333333)"  fill="#000000"><g transform="scale(10) rotate(90 3 3)"><path d="M3,6L3,6C1.3,6,0,4.7,0,3l0-3l3,0c1.7,0,3,1.3,3,3v0C6,4.7,4.7,6,3,6z"/></g></g>
<g transform="translate(305.83333333333,745.83333333333)"  fill="#000000"><g transform="scale(10) rotate(-90 3 3)"><path d="M3,6L3,6C1.3,6,0,4.7,0,3l0-3l3,0c1.7,0,3,1.3,3,3v0C6,4.7,4.7,6,3,6z"/></g></g></g>
<text fill="#FFFFFF" font-family="Arial, Helvetica, sans-serif" font-size="81.869618055556px" text-anchor="middle" x="525.625" y="170.44664797009" transform="translate(0,856.90972222222)">CONTATOS</text></svg>