<?xml version="1.0" standalone="no"?>
<!DOCTYPE svg PUBLIC "-//W3C//DTD SVG 20010904//EN"
 "http://www.w3.org/TR/2001/REC-SVG-20010904/DTD/svg10.dtd">
<svg version="1.0" xmlns="http://www.w3.org/2000/svg"
 width="500.000000pt" height="500.000000pt" viewBox="0 0 500.000000 500.000000"
 preserveAspectRatio="xMidYMid meet">

<g transform="translate(0.000000,500.000000) scale(0.100000,-0.100000)"
fill="#000000" stroke="none">
<path d="M2290 4479 c-601 -68 -1142 -413 -1462 -935 -359 -583 -396 -1324
-98 -1929 296 -602 839 -1004 1486 -1101 147 -23 432 -22 579 0 151 23 319 69
450 123 911 372 1412 1377 1170 2343 -203 811 -884 1409 -1707 1499 -111 13
-308 12 -418 0z m254 -1071 c49 -35 580 -586 590 -612 20 -54 -33 -116 -87
-101 -12 4 -124 111 -249 238 l-227 232 0 -932 c-1 -919 -1 -933 -21 -953 -30
-30 -83 -27 -109 6 -21 27 -21 31 -21 952 l0 926 -228 -234 c-204 -209 -231
-233 -260 -233 -45 0 -72 27 -72 74 0 37 13 51 296 341 163 167 303 306 312
310 29 12 45 9 76 -14z"/>
</g>
</svg>
